# xmcd
#
# Track frame offsets:
#	150
#	15340
#	31770
#	47313
#	69227
#	87452
#	104221
#	118353
#	133563
#	146287
#	164680
#
# Disc length: 2395 seconds
#
# Revision: 1
# Processed by: cddbd v1.5.2PL0 Copyright (c) Steve Scherf et al.
# Submitted via: audiograbber 1.83.01
#
DISCID=9009590b
DTITLE=Gene Watson - In A Perfect World
DYEAR=2007
DGENRE=Country
TTITLE0=Don't You Ever Get Tired Of Hurting Me
TTITLE1=Let Me Be the First To Go
TTITLE2=What Was I Thinking
TTITLE3=Today I Started Loving You Again
TTITLE4=In a Perfect World
TTITLE5=She's Already Gone
TTITLE6=This Side Of the Door
TTITLE7=Together Again
TTITLE8=I Buried Our Love
TTITLE9=A Good Place To Turn Around
TTITLE10=Like I Wasn't Even There
EXTD=
EXTT0=
EXTT1=
EXTT2=
EXTT3=
EXTT4=
EXTT5=
EXTT6=
EXTT7=
EXTT8=
EXTT9=
EXTT10=
PLAYORDER=
